# xmcd
#
# Track frame offsets: 
#        150
#        17050
#        32497
#        45087
#        66227
#        81835
#        99535
#        117522
#        129970
#
# Disc length: 1949 seconds
#
# Revision: 0
# Processed by: cddbd v1.4PL0 Copyright (c) Steve Scherf et al.
# Submitted via: ExactAudioCopy v0.90b3
#
DISCID=68079b09
DTITLE=Hank Williams, Jr. - Hank Williams, Jr. and Friends
DYEAR=1900
DGENRE=
TTITLE0=Losin' You
TTITLE1=On Susan's Floor
TTITLE2=I Really Did
TTITLE3=Can't You See
TTITLE4=Montana Song
TTITLE5=Clovis, New Mexico
TTITLE6=Brothers Of The Road
TTITLE7=Stoned At The Jukebox
TTITLE8=(The) Living Proof
EXTD=
EXTT0=
EXTT1=
EXTT2=
EXTT3=
EXTT4=
EXTT5=
EXTT6=
EXTT7=
EXTT8=
PLAYORDER=
